<?xml version="1.0" encoding="utf-8"?>
<!-- Generator: Adobe Illustrator 20.1.0, SVG Export Plug-In . SVG Version: 6.00 Build 0)  -->
<svg version="1.1" id="Layer_1" xmlns="http://www.w3.org/2000/svg" xmlns:xlink="http://www.w3.org/1999/xlink" x="0px" y="0px"
	 viewBox="0 0 24 23" style="enable-background:new 0 0 24 23;" xml:space="preserve">
<style type="text/css">
 	.st0{fill: rgba(0, 0, 0, 0.8);}
	.fill { fill: rgba(255, 255, 255, 0.8);}
</style>
<path class="fill" d="M24,9.2c0-0.9-0.5-1.6-1.2-2c0.2-0.3,0.2-0.6,0.2-1c0-0.9-0.5-1.6-1.2-2c0.2-0.3,0.2-0.6,0.2-1
	C22,2,21,1,19.8,1h-9.2C9.8,1,8.8,1.2,8,1.6V0.5C8,0.2,7.8,0,7.5,0h-7C0.2,0,0,0.2,0,0.5v12C0,12.8,0.2,13,0.5,13h7
	C7.8,13,8,12.8,8,12.5v-0.2l0.1,0.1l2.9,6.2V22c0,0.2,0.1,0.3,0.2,0.4c0,0,0.8,0.6,1.8,0.6c1.2,0,3-1.8,3-4c0-1.4-0.5-3.1-0.8-4h6.3
	c1.4,0,2.5-1.1,2.5-2.5c0-0.6-0.2-1.2-0.6-1.7C23.8,10.4,24,9.8,24,9.2z M11.5,17.3l-0.1-0.2h0.1V17.3z M13,22c-0.2,0-0.4,0-0.5-0.1
	h0.8C13.2,22,13.1,22,13,22z M14.6,16.5L14.6,16.5C14.6,16.4,14.6,16.5,14.6,16.5L14.6,16.5z"/>
<g>
	<g>
		<path class="st0" d="M7.5,13h-7C0.2,13,0,12.8,0,12.5v-12C0,0.2,0.2,0,0.5,0h7C7.8,0,8,0.2,8,0.5v12C8,12.8,7.8,13,7.5,13z M1,12h6V1H1V12z"/>
	</g>
	<g>
		<path class="st0" d="M13,23c-1,0-1.8-0.6-1.8-0.6C11.1,22.3,11,22.2,11,22v-3.4l-2.9-6.2l-0.8-0.4c-0.2-0.1-0.3-0.4-0.2-0.7
			c0.1-0.2,0.4-0.3,0.7-0.2l1,0.5c0.1,0.1,0.2,0.1,0.2,0.2l3,6.5c0,0.1,0,0.1,0,0.2v3.2c0.2,0.1,0.6,0.3,1,0.3c0.5,0,2-1.4,2-3
			c0-1.8-1-4.3-1-4.3c-0.1-0.2,0-0.3,0.1-0.5c0.1-0.1,0.2-0.2,0.4-0.2h7c0.8,0,1.5-0.7,1.5-1.5c0-0.5-0.3-1-0.7-1.3
			C22.1,11.1,22,11,22,10.8c0-0.2,0.1-0.3,0.3-0.4c0.4-0.2,0.7-0.6,0.7-1.1c0-0.6-0.5-1.2-1.1-1.2c-0.2,0-0.4-0.2-0.4-0.3
			c-0.1-0.2,0-0.4,0.1-0.5C21.9,6.9,22,6.6,22,6.2c0-0.6-0.5-1.2-1.1-1.2c-0.2,0-0.4-0.2-0.4-0.3s0-0.4,0.1-0.5
			C20.9,3.9,21,3.6,21,3.2C21,2.6,20.4,2,19.8,2h-9.2C9.7,2,8.3,2.4,7.9,2.9C7.7,3,7.3,3,7.1,2.9S7,2.3,7.1,2.1
			C7.9,1.4,9.6,1,10.5,1h9.2C21,1,22,2,22,3.2c0,0.4-0.1,0.7-0.2,1c0.7,0.4,1.2,1.1,1.2,2c0,0.4-0.1,0.7-0.2,1
			c0.7,0.4,1.2,1.1,1.2,2c0,0.6-0.2,1.2-0.6,1.6c0.4,0.5,0.6,1,0.6,1.7c0,1.4-1.1,2.5-2.5,2.5h-6.3c0.3,0.9,0.8,2.6,0.8,4
			C16,21.2,14.2,23,13,23z"/>
	</g>
</g>
</svg>
