<?xml version="1.0" encoding="utf-8"?>
<!-- Generator: Adobe Illustrator 20.1.0, SVG Export Plug-In . SVG Version: 6.00 Build 0)  -->
<svg version="1.1" id="Layer_1" xmlns="http://www.w3.org/2000/svg" xmlns:xlink="http://www.w3.org/1999/xlink" x="0px" y="0px"
	 viewBox="0 0 24 23" style="enable-background:new 0 0 24 23;" xml:space="preserve">
<style type="text/css">
	.st0{fill: rgba(0, 0, 0, 0.8);}
	.fill { fill: rgba(255, 255, 255, 0.8);}
</style>
<path class="fill" d="M24,11c0-1.4-1.1-2.5-2.5-2.5h-6.3c0.3-0.9,0.8-2.6,0.8-4c0-2.2-1.8-4-3-4c-1,0-1.8,0.6-1.8,0.6C11.1,1.2,11,1.3,11,1.5v3.4
	l-2.3,5h0v0l-0.6,1.2L8,11.2V11c0-0.3-0.2-0.5-0.5-0.5h-7C0.2,10.5,0,10.7,0,11v12c0,0.3,0.2,0.5,0.5,0.5h7C7.8,23.5,8,23.3,8,23
	v-1.1c0.8,0.4,1.8,0.6,2.5,0.6h9.2c1.2,0,2.2-1,2.2-2.2c0-0.4-0.1-0.7-0.2-1c0.7-0.4,1.2-1.1,1.2-2c0-0.4-0.1-0.7-0.2-1
	c0.7-0.4,1.2-1.1,1.2-2c0-0.6-0.2-1.2-0.7-1.6C23.8,12.2,24,11.6,24,11z M22.1,12.4L22.1,12.4c0,0.1,0,0.1,0,0.2V12.4z M21.7,9.6
	L21.7,9.6c0.1,0,0.1,0,0.2,0H21.7z"/>
<g>
	<g>
		<path class="st0" d="M7.5,23.5h-7C0.2,23.5,0,23.3,0,23V11c0-0.3,0.2-0.5,0.5-0.5h7C7.8,10.5,8,10.7,8,11v12
			C8,23.3,7.8,23.5,7.5,23.5z M1,22.5h6v-11H1V22.5z"/>
	</g>
	<g>
		<path class="st0" d="M19.8,22.5h-9.2c-0.9,0-2.6-0.4-3.4-1.1c-0.2-0.2-0.2-0.5,0-0.7s0.5-0.2,0.7,0c0.5,0.5,1.8,0.9,2.6,0.9h9.3
			c0.7,0,1.2-0.6,1.2-1.2c0-0.3-0.1-0.7-0.4-0.9c-0.1-0.1-0.2-0.3-0.1-0.5c0.1-0.2,0.2-0.3,0.4-0.3c0.6-0.1,1.1-0.6,1.1-1.2
			c0-0.3-0.1-0.7-0.4-0.9c-0.1-0.1-0.2-0.3-0.1-0.5c0.1-0.2,0.2-0.3,0.4-0.3c0.6-0.1,1.1-0.6,1.1-1.2c0-0.5-0.3-0.9-0.7-1.1
			c-0.2-0.1-0.3-0.2-0.3-0.4c0-0.2,0.1-0.4,0.2-0.4C22.7,12,23,11.5,23,11c0-0.8-0.7-1.5-1.5-1.5h-7c-0.2,0-0.3-0.1-0.4-0.2
			S14,9,14,8.8c0,0,1-2.6,1-4.3c0-1.6-1.5-3-2-3c-0.4,0-0.8,0.2-1,0.3V5c0,0.1,0,0.1,0,0.2l-3,6.5c0,0.1-0.1,0.2-0.2,0.2l-1,0.5
			c-0.2,0.1-0.5,0-0.7-0.2s0-0.5,0.2-0.7l0.8-0.4L11,4.9V1.5c0-0.2,0.1-0.3,0.2-0.4c0,0,0.8-0.6,1.8-0.6c1.2,0,3,1.8,3,4
			c0,1.4-0.5,3.1-0.8,4h6.3c1.4,0,2.5,1.1,2.5,2.5c0,0.6-0.2,1.2-0.6,1.7c0.4,0.4,0.6,1,0.6,1.6c0,0.9-0.5,1.6-1.2,2
			c0.2,0.3,0.2,0.6,0.2,1c0,0.9-0.5,1.6-1.2,2c0.2,0.3,0.2,0.6,0.2,1C22,21.5,21,22.5,19.8,22.5z"/>
	</g>
</g>
</svg>
